<svg xmlns="http://www.w3.org/2000/svg" xmlns:xlink="http://www.w3.org/1999/xlink" width="851" zoomAndPan="magnify" viewBox="0 0 638.25 236.249991" height="315" preserveAspectRatio="xMidYMid meet" version="1.0"><defs><g/><clipPath id="4cca545ba2"><rect x="0" width="400" y="0" height="137"/></clipPath><clipPath id="d1b97d1bb0"><rect x="0" width="235" y="0" height="114"/></clipPath><clipPath id="87c2c8f6cc"><path d="M 45 15 L 63.558594 15 L 63.558594 49 L 45 49 Z M 45 15 " clip-rule="nonzero"/></clipPath><clipPath id="facae2f599"><rect x="0" width="19" y="0" height="34"/></clipPath><clipPath id="178ff2daa7"><path d="M 0.398438 0 L 48 0 L 48 194.980469 L 0.398438 194.980469 Z M 0.398438 0 " clip-rule="nonzero"/></clipPath><clipPath id="0153521ae1"><rect x="0" width="48" y="0" height="195"/></clipPath><clipPath id="95bb7e9e18"><rect x="0" width="64" y="0" height="195"/></clipPath><clipPath id="37331544ce"><rect x="0" width="432" y="0" height="62"/></clipPath></defs><g transform="matrix(1, 0, 0, 1, 142, 20)"><g clip-path="url(#4cca545ba2)"><g fill="#000000" fill-opacity="1"><g transform="translate(1.465682, 51.442995)"><g/></g></g><g fill="#000000" fill-opacity="1"><g transform="translate(11.937919, 51.442995)"><g/></g></g><g fill="#000000" fill-opacity="1"><g transform="translate(22.415632, 51.442995)"><g><path d="M 1.703125 0 L 1.703125 -38.453125 L 9.359375 -38.453125 L 9.359375 -24.703125 L 12.984375 -24.703125 L 12.984375 -38.453125 L 20.640625 -38.453125 L 20.640625 0 L 12.984375 0 L 12.984375 -17.453125 L 9.359375 -17.453125 L 9.359375 0 Z M 1.703125 0 "/></g></g></g><g fill="#000000" fill-opacity="1"><g transform="translate(44.747466, 51.442995)"><g><path d="M 11.109375 0.359375 C 4.566406 0.359375 1.296875 -3.023438 1.296875 -9.796875 L 1.296875 -22.96875 C 1.296875 -26.070312 2.164062 -28.539062 3.90625 -30.375 C 5.65625 -32.207031 8.054688 -33.125 11.109375 -33.125 C 14.148438 -33.125 16.539062 -32.207031 18.28125 -30.375 C 20.03125 -28.539062 20.90625 -26.070312 20.90625 -22.96875 L 20.90625 -9.796875 C 20.90625 -3.023438 17.640625 0.359375 11.109375 0.359375 Z M 11.109375 -5.6875 C 11.734375 -5.6875 12.191406 -5.910156 12.484375 -6.359375 C 12.785156 -6.804688 12.9375 -7.414062 12.9375 -8.1875 L 12.9375 -24.21875 C 12.9375 -26.125 12.328125 -27.078125 11.109375 -27.078125 C 9.878906 -27.078125 9.265625 -26.125 9.265625 -24.21875 L 9.265625 -8.1875 C 9.265625 -7.414062 9.410156 -6.804688 9.703125 -6.359375 C 10.003906 -5.910156 10.472656 -5.6875 11.109375 -5.6875 Z M 11.109375 -5.6875 "/></g></g></g><g fill="#000000" fill-opacity="1"><g transform="translate(66.98979, 51.442995)"><g><path d="M 1.5625 -32.765625 L 9.21875 -32.765625 L 9.21875 -28.96875 C 9.582031 -30.363281 10.195312 -31.40625 11.0625 -32.09375 C 11.925781 -32.78125 13.148438 -33.125 14.734375 -33.125 C 16.015625 -33.125 17.125 -32.832031 18.0625 -32.25 C 19 -31.664062 19.664062 -30.867188 20.0625 -29.859375 C 20.71875 -30.992188 21.445312 -31.820312 22.25 -32.34375 C 23.050781 -32.863281 24.171875 -33.125 25.609375 -33.125 C 28.171875 -33.125 29.953125 -32.335938 30.953125 -30.765625 C 31.953125 -29.203125 32.453125 -26.929688 32.453125 -23.953125 L 32.359375 0 L 24.484375 0 L 24.484375 -24.078125 C 24.484375 -26.203125 23.945312 -27.265625 22.875 -27.265625 C 22.125 -27.265625 21.582031 -26.894531 21.25 -26.15625 C 20.925781 -25.425781 20.765625 -24.554688 20.765625 -23.546875 L 20.765625 0 L 12.9375 0 L 12.9375 -24.078125 C 12.9375 -25.003906 12.835938 -25.75 12.640625 -26.3125 C 12.453125 -26.882812 12.046875 -27.171875 11.421875 -27.171875 C 10.609375 -27.171875 10.035156 -26.773438 9.703125 -25.984375 C 9.378906 -25.191406 9.21875 -24.242188 9.21875 -23.140625 L 9.21875 0 L 1.5625 0 Z M 1.5625 -32.765625 "/></g></g></g><g fill="#000000" fill-opacity="1"><g transform="translate(100.912691, 51.442995)"><g><path d="M 10.75 0.359375 C 7.375 0.359375 4.953125 -0.5625 3.484375 -2.40625 C 2.023438 -4.257812 1.296875 -7.023438 1.296875 -10.703125 L 1.296875 -23.859375 C 1.296875 -26.867188 2.160156 -29.164062 3.890625 -30.75 C 5.617188 -32.332031 8.035156 -33.125 11.140625 -33.125 C 17.441406 -33.125 20.59375 -30.035156 20.59375 -23.859375 L 20.59375 -21.484375 C 20.59375 -19.097656 20.5625 -17.160156 20.5 -15.671875 L 9.125 -15.671875 L 9.125 -9.3125 C 9.125 -8.175781 9.242188 -7.285156 9.484375 -6.640625 C 9.722656 -6.003906 10.234375 -5.6875 11.015625 -5.6875 C 11.609375 -5.6875 12.03125 -5.863281 12.28125 -6.21875 C 12.539062 -6.582031 12.691406 -6.992188 12.734375 -7.453125 C 12.773438 -7.910156 12.796875 -8.585938 12.796875 -9.484375 L 12.796875 -12.671875 L 20.59375 -12.671875 L 20.59375 -10.78125 C 20.59375 -6.96875 19.851562 -4.15625 18.375 -2.34375 C 16.894531 -0.539062 14.351562 0.359375 10.75 0.359375 Z M 12.796875 -19.5625 L 12.796875 -23.765625 C 12.796875 -26.128906 12.21875 -27.3125 11.0625 -27.3125 C 9.75 -27.3125 9.09375 -26.128906 9.09375 -23.765625 L 9.09375 -19.5625 Z M 12.796875 -19.5625 "/></g></g></g><g fill="#000000" fill-opacity="1"><g transform="translate(122.752238, 51.442995)"><g><path d="M 11.109375 0.359375 C 4.566406 0.359375 1.296875 -3.023438 1.296875 -9.796875 L 1.296875 -22.96875 C 1.296875 -26.070312 2.164062 -28.539062 3.90625 -30.375 C 5.65625 -32.207031 8.054688 -33.125 11.109375 -33.125 C 14.148438 -33.125 16.539062 -32.207031 18.28125 -30.375 C 20.03125 -28.539062 20.90625 -26.070312 20.90625 -22.96875 L 20.90625 -9.796875 C 20.90625 -3.023438 17.640625 0.359375 11.109375 0.359375 Z M 11.109375 -5.6875 C 11.734375 -5.6875 12.191406 -5.910156 12.484375 -6.359375 C 12.785156 -6.804688 12.9375 -7.414062 12.9375 -8.1875 L 12.9375 -24.21875 C 12.9375 -26.125 12.328125 -27.078125 11.109375 -27.078125 C 9.878906 -27.078125 9.265625 -26.125 9.265625 -24.21875 L 9.265625 -8.1875 C 9.265625 -7.414062 9.410156 -6.804688 9.703125 -6.359375 C 10.003906 -5.910156 10.472656 -5.6875 11.109375 -5.6875 Z M 11.109375 -5.6875 "/></g></g></g><g fill="#000000" fill-opacity="1"><g transform="translate(144.994562, 51.442995)"><g><path d="M 1.5625 -32.765625 L 9.53125 -32.765625 L 9.53125 -31.015625 C 10.664062 -32.421875 12.234375 -33.125 14.234375 -33.125 C 16.773438 -33.125 18.546875 -32.269531 19.546875 -30.5625 C 20.546875 -28.863281 21.046875 -26.507812 21.046875 -23.5 L 21.046875 -11.375 C 21.046875 -8.800781 20.894531 -6.703125 20.59375 -5.078125 C 20.289062 -3.453125 19.628906 -2.140625 18.609375 -1.140625 C 17.597656 -0.140625 16.066406 0.359375 14.015625 0.359375 C 12.046875 0.359375 10.550781 -0.191406 9.53125 -1.296875 L 9.53125 6.53125 L 1.5625 6.53125 Z M 11.421875 -5.734375 C 12.128906 -5.734375 12.585938 -6.0625 12.796875 -6.71875 C 13.003906 -7.375 13.109375 -8.328125 13.109375 -9.578125 L 13.109375 -23.5 C 13.109375 -24.632812 13.003906 -25.5 12.796875 -26.09375 C 12.585938 -26.695312 12.113281 -27 11.375 -27 C 10.144531 -27 9.53125 -25.863281 9.53125 -23.59375 L 9.53125 -9.21875 C 9.53125 -8.113281 9.65625 -7.253906 9.90625 -6.640625 C 10.164062 -6.035156 10.671875 -5.734375 11.421875 -5.734375 Z M 11.421875 -5.734375 "/></g></g></g><g fill="#000000" fill-opacity="1"><g transform="translate(167.371142, 51.442995)"><g><path d="M 7.515625 0.359375 C 4.984375 0.359375 3.242188 -0.484375 2.296875 -2.171875 C 1.359375 -3.859375 0.890625 -6.269531 0.890625 -9.40625 C 0.890625 -11.96875 1.222656 -13.9375 1.890625 -15.3125 C 2.566406 -16.6875 3.5 -17.691406 4.6875 -18.328125 C 5.882812 -18.972656 7.707031 -19.679688 10.15625 -20.453125 L 12.3125 -21.171875 L 12.3125 -24.53125 C 12.3125 -25.394531 12.140625 -26.054688 11.796875 -26.515625 C 11.453125 -26.984375 11.039062 -27.21875 10.5625 -27.21875 C 10.144531 -27.21875 9.78125 -27.019531 9.46875 -26.625 C 9.15625 -26.238281 9 -25.71875 9 -25.0625 L 9 -23.09375 L 1.390625 -23.09375 L 1.390625 -24.171875 C 1.390625 -27.398438 2.140625 -29.695312 3.640625 -31.0625 C 5.148438 -32.4375 7.609375 -33.125 11.015625 -33.125 C 13.734375 -33.125 15.941406 -32.414062 17.640625 -31 C 19.335938 -29.582031 20.1875 -27.578125 20.1875 -24.984375 L 20.1875 0 L 12.40625 0 L 12.40625 -3.890625 C 12.007812 -2.546875 11.382812 -1.5 10.53125 -0.75 C 9.6875 -0.0078125 8.679688 0.359375 7.515625 0.359375 Z M 10.609375 -5.734375 C 11.203125 -5.734375 11.625 -5.976562 11.875 -6.46875 C 12.132812 -6.957031 12.265625 -7.5625 12.265625 -8.28125 L 12.265625 -17.40625 C 11.097656 -16.96875 10.238281 -16.40625 9.6875 -15.71875 C 9.132812 -15.03125 8.859375 -14.070312 8.859375 -12.84375 L 8.859375 -8.640625 C 8.859375 -6.703125 9.441406 -5.734375 10.609375 -5.734375 Z M 10.609375 -5.734375 "/></g></g></g><g fill="#000000" fill-opacity="1"><g transform="translate(188.986923, 51.442995)"><g><path d="M 8.328125 0.359375 C 6.265625 0.359375 4.84375 -0.0703125 4.0625 -0.9375 C 3.289062 -1.800781 2.90625 -3.191406 2.90625 -5.109375 L 2.90625 -25.5625 L 0.71875 -25.5625 L 0.71875 -31.515625 L 2.90625 -31.515625 L 2.90625 -38.453125 L 10.515625 -38.453125 L 10.515625 -31.515625 L 12.765625 -31.515625 L 12.765625 -25.5625 L 10.515625 -25.5625 L 10.515625 -7.15625 C 10.515625 -6.59375 10.554688 -6.175781 10.640625 -5.90625 C 10.734375 -5.632812 10.976562 -5.5 11.375 -5.5 C 11.664062 -5.5 11.945312 -5.515625 12.21875 -5.546875 C 12.488281 -5.578125 12.671875 -5.59375 12.765625 -5.59375 L 12.765625 -0.21875 C 12.316406 -0.101562 11.664062 0.0195312 10.8125 0.15625 C 9.957031 0.289062 9.128906 0.359375 8.328125 0.359375 Z M 8.328125 0.359375 "/></g></g></g><g fill="#000000" fill-opacity="1"><g transform="translate(202.636639, 51.442995)"><g><path d="M 1.5625 -38.671875 L 9.625 -38.671875 L 9.625 -29.546875 C 10.457031 -31.929688 12.054688 -33.125 14.421875 -33.125 C 16.628906 -33.125 18.296875 -32.421875 19.421875 -31.015625 C 20.554688 -29.617188 21.125 -27.695312 21.125 -25.25 L 21.125 0 L 13.296875 0 L 13.296875 -24.75 C 13.296875 -25.46875 13.128906 -26.050781 12.796875 -26.5 C 12.472656 -26.945312 12 -27.171875 11.375 -27.171875 C 10.832031 -27.171875 10.40625 -26.9375 10.09375 -26.46875 C 9.78125 -26.007812 9.625 -25.453125 9.625 -24.796875 L 9.625 0 L 1.5625 0 Z M 1.5625 -38.671875 "/></g></g></g><g fill="#000000" fill-opacity="1"><g transform="translate(225.236995, 51.442995)"><g><path d="M 1.515625 -34.96875 L 1.515625 -40.421875 L 9.359375 -40.421875 L 9.359375 -34.96875 Z M 1.515625 0 L 1.515625 -32.765625 L 9.359375 -32.765625 L 9.359375 0 Z M 1.515625 0 "/></g></g></g><g fill="#000000" fill-opacity="1"><g transform="translate(236.112009, 51.442995)"><g><path d="M 11.421875 0.359375 C 7.835938 0.359375 5.253906 -0.550781 3.671875 -2.375 C 2.085938 -4.195312 1.296875 -6.988281 1.296875 -10.75 L 1.296875 -20.859375 C 1.296875 -23.691406 1.601562 -25.992188 2.21875 -27.765625 C 2.832031 -29.546875 3.859375 -30.882812 5.296875 -31.78125 C 6.742188 -32.675781 8.753906 -33.125 11.328125 -33.125 C 14.128906 -33.125 16.410156 -32.390625 18.171875 -30.921875 C 19.929688 -29.460938 20.8125 -27.421875 20.8125 -24.796875 L 20.8125 -19.78125 L 12.84375 -19.78125 L 12.84375 -24.390625 C 12.84375 -25.265625 12.722656 -25.929688 12.484375 -26.390625 C 12.242188 -26.847656 11.785156 -27.078125 11.109375 -27.078125 C 9.816406 -27.078125 9.171875 -26.171875 9.171875 -24.359375 L 9.171875 -8.453125 C 9.171875 -7.710938 9.328125 -7.082031 9.640625 -6.5625 C 9.953125 -6.039062 10.425781 -5.78125 11.0625 -5.78125 C 11.6875 -5.78125 12.15625 -6.03125 12.46875 -6.53125 C 12.78125 -7.039062 12.921875 -7.695312 12.890625 -8.5 L 12.84375 -14.015625 L 20.8125 -14.015625 L 20.8125 -8.28125 C 20.8125 -5.59375 19.9375 -3.476562 18.1875 -1.9375 C 16.445312 -0.40625 14.191406 0.359375 11.421875 0.359375 Z M 11.421875 0.359375 "/></g></g></g><g fill="#000000" fill-opacity="1"><g transform="translate(258.085812, 51.442995)"><g/></g></g><g fill="#000000" fill-opacity="1"><g transform="translate(268.558049, 51.442995)"><g><path d="M 1.703125 -38.453125 L 12.125 -38.453125 C 14.9375 -38.453125 16.972656 -37.765625 18.234375 -36.390625 C 19.503906 -35.015625 20.140625 -32.773438 20.140625 -29.671875 L 20.140625 -27.984375 C 20.140625 -24.304688 18.828125 -22.109375 16.203125 -21.390625 C 17.816406 -20.972656 18.953125 -20.003906 19.609375 -18.484375 C 20.265625 -16.960938 20.59375 -14.945312 20.59375 -12.4375 C 20.59375 -8.351562 19.976562 -5.257812 18.75 -3.15625 C 17.53125 -1.050781 15.320312 0 12.125 0 L 1.703125 0 Z M 10.78125 -24 C 11.4375 -24 11.882812 -24.242188 12.125 -24.734375 C 12.363281 -25.222656 12.484375 -25.914062 12.484375 -26.8125 L 12.484375 -30.671875 C 12.484375 -31.921875 11.929688 -32.546875 10.828125 -32.546875 L 9.21875 -32.546875 L 9.21875 -24 Z M 9.984375 -6.765625 C 11.984375 -6.765625 12.984375 -7.71875 12.984375 -9.625 L 12.984375 -14.421875 C 12.984375 -15.578125 12.8125 -16.453125 12.46875 -17.046875 C 12.125 -17.648438 11.519531 -17.953125 10.65625 -17.953125 L 9.21875 -17.953125 L 9.21875 -6.796875 Z M 9.984375 -6.765625 "/></g></g></g><g fill="#000000" fill-opacity="1"><g transform="translate(289.994828, 51.442995)"><g><path d="M 11.109375 0.359375 C 4.566406 0.359375 1.296875 -3.023438 1.296875 -9.796875 L 1.296875 -22.96875 C 1.296875 -26.070312 2.164062 -28.539062 3.90625 -30.375 C 5.65625 -32.207031 8.054688 -33.125 11.109375 -33.125 C 14.148438 -33.125 16.539062 -32.207031 18.28125 -30.375 C 20.03125 -28.539062 20.90625 -26.070312 20.90625 -22.96875 L 20.90625 -9.796875 C 20.90625 -3.023438 17.640625 0.359375 11.109375 0.359375 Z M 11.109375 -5.6875 C 11.734375 -5.6875 12.191406 -5.910156 12.484375 -6.359375 C 12.785156 -6.804688 12.9375 -7.414062 12.9375 -8.1875 L 12.9375 -24.21875 C 12.9375 -26.125 12.328125 -27.078125 11.109375 -27.078125 C 9.878906 -27.078125 9.265625 -26.125 9.265625 -24.21875 L 9.265625 -8.1875 C 9.265625 -7.414062 9.410156 -6.804688 9.703125 -6.359375 C 10.003906 -5.910156 10.472656 -5.6875 11.109375 -5.6875 Z M 11.109375 -5.6875 "/></g></g></g><g fill="#000000" fill-opacity="1"><g transform="translate(312.237143, 51.442995)"><g><path d="M 11.109375 0.359375 C 4.566406 0.359375 1.296875 -3.023438 1.296875 -9.796875 L 1.296875 -22.96875 C 1.296875 -26.070312 2.164062 -28.539062 3.90625 -30.375 C 5.65625 -32.207031 8.054688 -33.125 11.109375 -33.125 C 14.148438 -33.125 16.539062 -32.207031 18.28125 -30.375 C 20.03125 -28.539062 20.90625 -26.070312 20.90625 -22.96875 L 20.90625 -9.796875 C 20.90625 -3.023438 17.640625 0.359375 11.109375 0.359375 Z M 11.109375 -5.6875 C 11.734375 -5.6875 12.191406 -5.910156 12.484375 -6.359375 C 12.785156 -6.804688 12.9375 -7.414062 12.9375 -8.1875 L 12.9375 -24.21875 C 12.9375 -26.125 12.328125 -27.078125 11.109375 -27.078125 C 9.878906 -27.078125 9.265625 -26.125 9.265625 -24.21875 L 9.265625 -8.1875 C 9.265625 -7.414062 9.410156 -6.804688 9.703125 -6.359375 C 10.003906 -5.910156 10.472656 -5.6875 11.109375 -5.6875 Z M 11.109375 -5.6875 "/></g></g></g><g fill="#000000" fill-opacity="1"><g transform="translate(334.479457, 51.442995)"><g><path d="M 1.5625 0 L 1.5625 -38.671875 L 9.3125 -38.671875 L 9.3125 -21.484375 L 13.078125 -32.765625 L 21.171875 -32.765625 L 16.25 -18.53125 L 22.515625 0 L 14.1875 0 L 9.3125 -15.4375 L 9.3125 0 Z M 1.5625 0 "/></g></g></g><g fill="#000000" fill-opacity="1"><g transform="translate(356.453279, 51.442995)"><g/></g></g><g fill="#000000" fill-opacity="1"><g transform="translate(366.925516, 51.442995)"><g><path d="M 1.34375 0 L 1.34375 -38.453125 L 8.78125 -38.453125 L 8.78125 0 Z M 1.34375 0 "/></g></g></g><g fill="#000000" fill-opacity="1"><g transform="translate(377.084486, 51.442995)"><g><path d="M 1.5625 -32.765625 L 9.40625 -32.765625 L 9.40625 -28.609375 C 9.726562 -29.953125 10.289062 -31.039062 11.09375 -31.875 C 11.90625 -32.707031 12.984375 -33.125 14.328125 -33.125 C 16.535156 -33.125 18.164062 -32.441406 19.21875 -31.078125 C 20.28125 -29.722656 20.8125 -27.796875 20.8125 -25.296875 L 20.8125 0 L 13.109375 0 L 13.109375 -24.484375 C 13.109375 -25.203125 12.96875 -25.8125 12.6875 -26.3125 C 12.40625 -26.820312 11.96875 -27.078125 11.375 -27.078125 C 10.5625 -27.078125 10.03125 -26.710938 9.78125 -25.984375 C 9.53125 -25.253906 9.40625 -24.273438 9.40625 -23.046875 L 9.40625 0 L 1.5625 0 Z M 1.5625 -32.765625 "/></g></g></g><g fill="#000000" fill-opacity="1"><g transform="translate(29.563494, 121.578926)"><g><path d="M 1.34375 0 L 1.34375 -38.453125 L 8.78125 -38.453125 L 8.78125 0 Z M 1.34375 0 "/></g></g></g><g fill="#000000" fill-opacity="1"><g transform="translate(39.722464, 121.578926)"><g><path d="M 1.5625 -32.765625 L 9.40625 -32.765625 L 9.40625 -28.609375 C 9.726562 -29.953125 10.289062 -31.039062 11.09375 -31.875 C 11.90625 -32.707031 12.984375 -33.125 14.328125 -33.125 C 16.535156 -33.125 18.164062 -32.441406 19.21875 -31.078125 C 20.28125 -29.722656 20.8125 -27.796875 20.8125 -25.296875 L 20.8125 0 L 13.109375 0 L 13.109375 -24.484375 C 13.109375 -25.203125 12.96875 -25.8125 12.6875 -26.3125 C 12.40625 -26.820312 11.96875 -27.078125 11.375 -27.078125 C 10.5625 -27.078125 10.03125 -26.710938 9.78125 -25.984375 C 9.53125 -25.253906 9.40625 -24.273438 9.40625 -23.046875 L 9.40625 0 L 1.5625 0 Z M 1.5625 -32.765625 "/></g></g></g><g fill="#000000" fill-opacity="1"><g transform="translate(62.054299, 121.578926)"><g><path d="M 8.015625 0.359375 C 6.097656 0.359375 4.65625 -0.09375 3.6875 -1 C 2.71875 -1.914062 2.078125 -3.125 1.765625 -4.625 C 1.453125 -6.132812 1.296875 -8.070312 1.296875 -10.4375 L 1.390625 -25.203125 C 1.390625 -27.523438 1.976562 -29.425781 3.15625 -30.90625 C 4.332031 -32.382812 5.992188 -33.125 8.140625 -33.125 C 10.265625 -33.125 11.847656 -32.421875 12.890625 -31.015625 L 12.890625 -38.671875 L 20.71875 -38.671875 L 20.71875 0 L 12.890625 0 L 12.890625 -3.484375 C 12.441406 -2.203125 11.835938 -1.238281 11.078125 -0.59375 C 10.316406 0.0390625 9.296875 0.359375 8.015625 0.359375 Z M 11.015625 -5.78125 C 11.785156 -5.78125 12.289062 -6.160156 12.53125 -6.921875 C 12.769531 -7.679688 12.890625 -8.703125 12.890625 -9.984375 L 12.890625 -23.6875 C 12.890625 -24.632812 12.753906 -25.4375 12.484375 -26.09375 C 12.222656 -26.75 11.75 -27.078125 11.0625 -27.078125 C 10.28125 -27.078125 9.757812 -26.769531 9.5 -26.15625 C 9.25 -25.550781 9.125 -24.726562 9.125 -23.6875 L 9.125 -9.890625 C 9.125 -7.148438 9.753906 -5.78125 11.015625 -5.78125 Z M 11.015625 -5.78125 "/></g></g></g><g fill="#000000" fill-opacity="1"><g transform="translate(84.341378, 121.578926)"><g><path d="M 1.515625 -34.96875 L 1.515625 -40.421875 L 9.359375 -40.421875 L 9.359375 -34.96875 Z M 1.515625 0 L 1.515625 -32.765625 L 9.359375 -32.765625 L 9.359375 0 Z M 1.515625 0 "/></g></g></g><g fill="#000000" fill-opacity="1"><g transform="translate(95.216401, 121.578926)"><g><path d="M 7.515625 0.359375 C 4.984375 0.359375 3.242188 -0.484375 2.296875 -2.171875 C 1.359375 -3.859375 0.890625 -6.269531 0.890625 -9.40625 C 0.890625 -11.96875 1.222656 -13.9375 1.890625 -15.3125 C 2.566406 -16.6875 3.5 -17.691406 4.6875 -18.328125 C 5.882812 -18.972656 7.707031 -19.679688 10.15625 -20.453125 L 12.3125 -21.171875 L 12.3125 -24.53125 C 12.3125 -25.394531 12.140625 -26.054688 11.796875 -26.515625 C 11.453125 -26.984375 11.039062 -27.21875 10.5625 -27.21875 C 10.144531 -27.21875 9.78125 -27.019531 9.46875 -26.625 C 9.15625 -26.238281 9 -25.71875 9 -25.0625 L 9 -23.09375 L 1.390625 -23.09375 L 1.390625 -24.171875 C 1.390625 -27.398438 2.140625 -29.695312 3.640625 -31.0625 C 5.148438 -32.4375 7.609375 -33.125 11.015625 -33.125 C 13.734375 -33.125 15.941406 -32.414062 17.640625 -31 C 19.335938 -29.582031 20.1875 -27.578125 20.1875 -24.984375 L 20.1875 0 L 12.40625 0 L 12.40625 -3.890625 C 12.007812 -2.546875 11.382812 -1.5 10.53125 -0.75 C 9.6875 -0.0078125 8.679688 0.359375 7.515625 0.359375 Z M 10.609375 -5.734375 C 11.203125 -5.734375 11.625 -5.976562 11.875 -6.46875 C 12.132812 -6.957031 12.265625 -7.5625 12.265625 -8.28125 L 12.265625 -17.40625 C 11.097656 -16.96875 10.238281 -16.40625 9.6875 -15.71875 C 9.132812 -15.03125 8.859375 -14.070312 8.859375 -12.84375 L 8.859375 -8.640625 C 8.859375 -6.703125 9.441406 -5.734375 10.609375 -5.734375 Z M 10.609375 -5.734375 "/></g></g></g><g fill="#000000" fill-opacity="1"><g transform="translate(116.832183, 121.578926)"><g/></g></g><g fill="#000000" fill-opacity="1"><g transform="translate(127.304419, 121.578926)"><g><path d="M 1.703125 0 L 1.703125 -38.453125 L 17.09375 -38.453125 L 17.09375 -30.984375 L 9.453125 -30.984375 L 9.453125 -24.84375 L 16.703125 -24.84375 L 16.703125 -17.453125 L 9.453125 -17.453125 L 9.453125 0 Z M 1.703125 0 "/></g></g></g><g fill="#000000" fill-opacity="1"><g transform="translate(145.160934, 121.578926)"><g><path d="M 11.109375 0.359375 C 4.566406 0.359375 1.296875 -3.023438 1.296875 -9.796875 L 1.296875 -22.96875 C 1.296875 -26.070312 2.164062 -28.539062 3.90625 -30.375 C 5.65625 -32.207031 8.054688 -33.125 11.109375 -33.125 C 14.148438 -33.125 16.539062 -32.207031 18.28125 -30.375 C 20.03125 -28.539062 20.90625 -26.070312 20.90625 -22.96875 L 20.90625 -9.796875 C 20.90625 -3.023438 17.640625 0.359375 11.109375 0.359375 Z M 11.109375 -5.6875 C 11.734375 -5.6875 12.191406 -5.910156 12.484375 -6.359375 C 12.785156 -6.804688 12.9375 -7.414062 12.9375 -8.1875 L 12.9375 -24.21875 C 12.9375 -26.125 12.328125 -27.078125 11.109375 -27.078125 C 9.878906 -27.078125 9.265625 -26.125 9.265625 -24.21875 L 9.265625 -8.1875 C 9.265625 -7.414062 9.410156 -6.804688 9.703125 -6.359375 C 10.003906 -5.910156 10.472656 -5.6875 11.109375 -5.6875 Z M 11.109375 -5.6875 "/></g></g></g><g fill="#000000" fill-opacity="1"><g transform="translate(167.403258, 121.578926)"><g><path d="M 1.5625 -32.765625 L 9.40625 -32.765625 L 9.40625 -29.140625 C 9.789062 -30.421875 10.46875 -31.410156 11.4375 -32.109375 C 12.40625 -32.816406 13.609375 -33.171875 15.046875 -33.171875 L 15.046875 -26.640625 C 13.941406 -26.640625 12.722656 -26.484375 11.390625 -26.171875 C 10.066406 -25.859375 9.40625 -25.488281 9.40625 -25.0625 L 9.40625 0 L 1.5625 0 Z M 1.5625 -32.765625 "/></g></g></g><g fill="#000000" fill-opacity="1"><g transform="translate(182.808132, 121.578926)"><g/></g></g><g fill="#000000" fill-opacity="1"><g transform="translate(193.280369, 121.578926)"><g/></g></g><g fill="#000000" fill-opacity="1"><g transform="translate(203.752606, 121.578926)"><g/></g></g><g fill="#000000" fill-opacity="1"><g transform="translate(214.224843, 121.578926)"><g/></g></g><g fill="#000000" fill-opacity="1"><g transform="translate(224.69708, 121.578926)"><g/></g></g><g fill="#000000" fill-opacity="1"><g transform="translate(235.169316, 121.578926)"><g/></g></g><g fill="#000000" fill-opacity="1"><g transform="translate(245.641553, 121.578926)"><g/></g></g><g fill="#000000" fill-opacity="1"><g transform="translate(256.11379, 121.578926)"><g/></g></g><g fill="#000000" fill-opacity="1"><g transform="translate(266.586027, 121.578926)"><g/></g></g><g fill="#000000" fill-opacity="1"><g transform="translate(277.058264, 121.578926)"><g/></g></g><g fill="#000000" fill-opacity="1"><g transform="translate(287.5305, 121.578926)"><g/></g></g><g fill="#000000" fill-opacity="1"><g transform="translate(298.002737, 121.578926)"><g/></g></g><g fill="#000000" fill-opacity="1"><g transform="translate(308.474974, 121.578926)"><g/></g></g><g fill="#000000" fill-opacity="1"><g transform="translate(318.947211, 121.578926)"><g/></g></g><g fill="#000000" fill-opacity="1"><g transform="translate(329.419448, 121.578926)"><g/></g></g><g fill="#000000" fill-opacity="1"><g transform="translate(339.891684, 121.578926)"><g/></g></g><g fill="#000000" fill-opacity="1"><g transform="translate(350.363921, 121.578926)"><g/></g></g><g fill="#000000" fill-opacity="1"><g transform="translate(360.836158, 121.578926)"><g/></g></g></g></g><g transform="matrix(1, 0, 0, 1, 328, 59)"><g clip-path="url(#d1b97d1bb0)"><g fill="#d80200" fill-opacity="1"><g transform="translate(1.70673, 87.711358)"><g><path d="M 1.15625 0 L 7.578125 -66.4375 L 30.09375 -66.4375 L 36.421875 0 L 23.828125 0 L 22.890625 -10.75 L 14.84375 -10.75 L 14.078125 0 Z M 15.859375 -21.34375 L 21.890625 -21.34375 L 18.953125 -55.140625 L 18.328125 -55.140625 Z M 15.859375 -21.34375 "/></g></g></g><g fill="#d80200" fill-opacity="1"><g transform="translate(39.208898, 87.711358)"><g><path d="M 13.609375 0.625 C 9.378906 0.625 6.476562 -0.632812 4.90625 -3.15625 C 3.332031 -5.6875 2.546875 -9.457031 2.546875 -14.46875 L 2.546875 -56.609375 L 16.171875 -56.609375 L 16.171875 -17.171875 C 16.171875 -16.804688 16.171875 -15.835938 16.171875 -14.265625 C 16.171875 -12.691406 16.414062 -11.582031 16.90625 -10.9375 C 17.394531 -10.300781 18.15625 -9.984375 19.1875 -9.984375 C 20.570312 -9.984375 21.445312 -10.5625 21.8125 -11.71875 C 22.175781 -12.875 22.359375 -14.535156 22.359375 -16.703125 L 22.359375 -17.171875 L 22.421875 -56.609375 L 35.890625 -56.609375 L 35.890625 0 L 22.359375 0 L 22.359375 -6.03125 C 21.421875 -3.65625 20.332031 -1.953125 19.09375 -0.921875 C 17.863281 0.109375 16.035156 0.625 13.609375 0.625 Z M 13.609375 0.625 "/></g></g></g><g fill="#d80200" fill-opacity="1"><g transform="translate(77.793619, 87.711358)"><g><path d="M 14.390625 0.625 C 10.828125 0.625 8.375 -0.117188 7.03125 -1.609375 C 5.695312 -3.109375 5.03125 -5.507812 5.03125 -8.8125 L 5.03125 -44.15625 L 1.234375 -44.15625 L 1.234375 -54.453125 L 5.03125 -54.453125 L 5.03125 -66.4375 L 18.171875 -66.4375 L 18.171875 -54.453125 L 22.046875 -54.453125 L 22.046875 -44.15625 L 18.171875 -44.15625 L 18.171875 -12.375 C 18.171875 -11.394531 18.25 -10.671875 18.40625 -10.203125 C 18.5625 -9.742188 18.972656 -9.515625 19.640625 -9.515625 C 20.160156 -9.515625 20.648438 -9.539062 21.109375 -9.59375 C 21.578125 -9.644531 21.890625 -9.671875 22.046875 -9.671875 L 22.046875 -0.390625 C 21.265625 -0.179688 20.140625 0.0351562 18.671875 0.265625 C 17.203125 0.503906 15.773438 0.625 14.390625 0.625 Z M 14.390625 0.625 "/></g></g></g><g fill="#d80200" fill-opacity="1"><g transform="translate(101.377461, 87.711358)"><g><path d="M 2.625 -60.40625 L 2.625 -69.84375 L 16.171875 -69.84375 L 16.171875 -60.40625 Z M 2.625 0 L 2.625 -56.609375 L 16.171875 -56.609375 L 16.171875 0 Z M 2.625 0 "/></g></g></g><g fill="#d80200" fill-opacity="1"><g transform="translate(120.167218, 87.711358)"><g><path d="M 18.25 0.625 C 7.0625 0.625 1.46875 -5.046875 1.46875 -16.390625 L 1.546875 -20.875 L 15.078125 -20.875 L 15.15625 -14.234375 C 15.15625 -12.890625 15.410156 -11.867188 15.921875 -11.171875 C 16.441406 -10.472656 17.296875 -10.125 18.484375 -10.125 C 20.285156 -10.125 21.1875 -11.597656 21.1875 -14.546875 C 21.1875 -16.703125 20.757812 -18.398438 19.90625 -19.640625 C 19.0625 -20.878906 17.710938 -22.195312 15.859375 -23.59375 L 8.65625 -29.15625 C 6.1875 -31.0625 4.410156 -33.03125 3.328125 -35.0625 C 2.242188 -37.101562 1.703125 -39.984375 1.703125 -43.703125 C 1.703125 -46.585938 2.460938 -49.046875 3.984375 -51.078125 C 5.503906 -53.117188 7.523438 -54.65625 10.046875 -55.6875 C 12.578125 -56.71875 15.390625 -57.234375 18.484375 -57.234375 C 29.460938 -57.234375 34.953125 -51.769531 34.953125 -40.84375 L 34.953125 -39.75 L 20.953125 -39.75 L 20.953125 -41.921875 C 20.953125 -43.265625 20.734375 -44.410156 20.296875 -45.359375 C 19.859375 -46.316406 19.125 -46.796875 18.09375 -46.796875 C 17.164062 -46.796875 16.457031 -46.523438 15.96875 -45.984375 C 15.476562 -45.441406 15.234375 -44.707031 15.234375 -43.78125 C 15.234375 -41.71875 16.035156 -40.117188 17.640625 -38.984375 L 25.984375 -32.875 C 28.972656 -30.65625 31.265625 -28.242188 32.859375 -25.640625 C 34.460938 -23.035156 35.265625 -19.75 35.265625 -15.78125 C 35.265625 -10.519531 33.769531 -6.46875 30.78125 -3.625 C 27.789062 -0.789062 23.613281 0.625 18.25 0.625 Z M 18.25 0.625 "/></g></g></g><g fill="#d80200" fill-opacity="1"><g transform="translate(156.896162, 87.711358)"><g><path d="M 2.703125 -56.609375 L 15.9375 -56.609375 L 15.9375 -50.046875 C 16.550781 -52.460938 17.601562 -54.265625 19.09375 -55.453125 C 20.59375 -56.640625 22.710938 -57.234375 25.453125 -57.234375 C 27.660156 -57.234375 29.578125 -56.726562 31.203125 -55.71875 C 32.828125 -54.71875 33.976562 -53.34375 34.65625 -51.59375 C 35.78125 -53.550781 37.039062 -54.976562 38.4375 -55.875 C 39.832031 -56.78125 41.765625 -57.234375 44.234375 -57.234375 C 48.671875 -57.234375 51.753906 -55.878906 53.484375 -53.171875 C 55.210938 -50.460938 56.078125 -46.53125 56.078125 -41.375 L 55.921875 0 L 42.3125 0 L 42.3125 -41.609375 C 42.3125 -45.273438 41.378906 -47.109375 39.515625 -47.109375 C 38.234375 -47.109375 37.304688 -46.472656 36.734375 -45.203125 C 36.171875 -43.941406 35.890625 -42.4375 35.890625 -40.6875 L 35.890625 0 L 22.359375 0 L 22.359375 -41.609375 C 22.359375 -43.210938 22.1875 -44.503906 21.84375 -45.484375 C 21.507812 -46.460938 20.800781 -46.953125 19.71875 -46.953125 C 18.332031 -46.953125 17.351562 -46.265625 16.78125 -44.890625 C 16.21875 -43.523438 15.9375 -41.890625 15.9375 -39.984375 L 15.9375 0 L 2.703125 0 Z M 2.703125 -56.609375 "/></g></g></g><g fill="#000000" fill-opacity="1"><g transform="translate(215.511927, 87.711358)"><g/></g></g></g></g><g transform="matrix(1, 0, 0, 1, 100, 0)"><g clip-path="url(#95bb7e9e18)"><g clip-path="url(#87c2c8f6cc)"><g transform="matrix(1, 0, 0, 1, 45, 15)"><g clip-path="url(#facae2f599)"><g fill="#000000" fill-opacity="1"><g transform="translate(1.01781, 21.077763)"><g><path d="M 7.34375 -10.71875 L 7.515625 -7.15625 L 7.140625 -7.15625 C 6.691406 -8.207031 6.222656 -8.925781 5.734375 -9.3125 C 5.242188 -9.695312 4.757812 -9.890625 4.28125 -9.890625 C 3.96875 -9.890625 3.703125 -9.785156 3.484375 -9.578125 C 3.273438 -9.378906 3.171875 -9.148438 3.171875 -8.890625 C 3.171875 -8.679688 3.25 -8.484375 3.40625 -8.296875 C 3.632812 -7.992188 4.296875 -7.472656 5.390625 -6.734375 C 6.484375 -5.992188 7.203125 -5.363281 7.546875 -4.84375 C 7.890625 -4.332031 8.0625 -3.753906 8.0625 -3.109375 C 8.0625 -2.535156 7.914062 -1.96875 7.625 -1.40625 C 7.34375 -0.851562 6.9375 -0.425781 6.40625 -0.125 C 5.882812 0.164062 5.300781 0.3125 4.65625 0.3125 C 4.164062 0.3125 3.5 0.15625 2.65625 -0.15625 C 2.4375 -0.238281 2.285156 -0.28125 2.203125 -0.28125 C 1.960938 -0.28125 1.757812 -0.09375 1.59375 0.28125 L 1.234375 0.28125 L 1.046875 -3.453125 L 1.421875 -3.453125 C 1.753906 -2.484375 2.210938 -1.753906 2.796875 -1.265625 C 3.390625 -0.773438 3.941406 -0.53125 4.453125 -0.53125 C 4.816406 -0.53125 5.109375 -0.632812 5.328125 -0.84375 C 5.554688 -1.0625 5.671875 -1.328125 5.671875 -1.640625 C 5.671875 -2.003906 5.554688 -2.316406 5.328125 -2.578125 C 5.109375 -2.835938 4.613281 -3.226562 3.84375 -3.75 C 2.707031 -4.539062 1.972656 -5.144531 1.640625 -5.5625 C 1.148438 -6.175781 0.90625 -6.847656 0.90625 -7.578125 C 0.90625 -8.378906 1.179688 -9.101562 1.734375 -9.75 C 2.285156 -10.394531 3.085938 -10.71875 4.140625 -10.71875 C 4.703125 -10.71875 5.242188 -10.582031 5.765625 -10.3125 C 5.972656 -10.195312 6.132812 -10.140625 6.25 -10.140625 C 6.394531 -10.140625 6.507812 -10.164062 6.59375 -10.21875 C 6.675781 -10.28125 6.800781 -10.445312 6.96875 -10.71875 Z M 7.34375 -10.71875 "/></g></g></g><g fill="#000000" fill-opacity="1"><g transform="translate(9.901731, 21.077763)"><g><path d="M 4.90625 -14.234375 L 4.90625 -10.421875 L 7.375 -10.421875 L 7.375 -9.3125 L 4.90625 -9.3125 L 4.90625 -2.875 C 4.90625 -2.28125 4.929688 -1.894531 4.984375 -1.71875 C 5.035156 -1.539062 5.132812 -1.398438 5.28125 -1.296875 C 5.425781 -1.191406 5.554688 -1.140625 5.671875 -1.140625 C 6.148438 -1.140625 6.609375 -1.503906 7.046875 -2.234375 L 7.375 -2 C 6.78125 -0.570312 5.800781 0.140625 4.4375 0.140625 C 3.78125 0.140625 3.222656 -0.0390625 2.765625 -0.40625 C 2.316406 -0.769531 2.023438 -1.179688 1.890625 -1.640625 C 1.816406 -1.890625 1.78125 -2.570312 1.78125 -3.6875 L 1.78125 -9.3125 L 0.421875 -9.3125 L 0.421875 -9.703125 C 1.359375 -10.367188 2.15625 -11.066406 2.8125 -11.796875 C 3.476562 -12.523438 4.054688 -13.335938 4.546875 -14.234375 Z M 4.90625 -14.234375 "/></g></g></g></g></g></g><g clip-path="url(#178ff2daa7)"><g transform="matrix(1, 0, 0, 1, -0.000000000000014211, 0)"><g clip-path="url(#0153521ae1)"><g fill="#d80200" fill-opacity="1"><g transform="translate(1.404018, 147.85336)"><g><path d="M 16.375 -91.828125 C 14.800781 -89.890625 12.601562 -88.316406 9.78125 -87.109375 C 6.957031 -85.910156 4.253906 -85.3125 1.671875 -85.3125 L 1.671875 -104.3125 C 5.734375 -104.957031 9.773438 -106.578125 13.796875 -109.171875 C 17.828125 -111.765625 20.71875 -115.140625 22.46875 -119.296875 L 41.609375 -119.296875 L 41.609375 0 L 16.375 0 Z M 16.375 -91.828125 "/></g></g></g></g></g></g></g></g><g transform="matrix(1, 0, 0, 1, 111, 150)"><g clip-path="url(#37331544ce)"><g fill="#000000" fill-opacity="1"><g transform="translate(14.423302, 22.193113)"><g><path d="M 11.015625 -3.46875 L 4.9375 -3.46875 L 3.765625 0 L 0.078125 0 L 6.359375 -16.84375 L 9.578125 -16.84375 L 15.875 0 L 12.1875 0 Z M 5.875 -6.28125 L 10.078125 -6.28125 L 7.96875 -12.59375 Z M 5.875 -6.28125 "/></g></g></g><g fill="#000000" fill-opacity="1"><g transform="translate(30.125426, 22.193113)"><g><path d="M 14.734375 -5.609375 C 14.597656 -3.796875 13.925781 -2.367188 12.71875 -1.328125 C 11.519531 -0.285156 9.929688 0.234375 7.953125 0.234375 C 5.785156 0.234375 4.082031 -0.488281 2.84375 -1.9375 C 1.613281 -3.394531 1 -5.394531 1 -7.9375 L 1 -8.96875 C 1 -10.59375 1.28125 -12.019531 1.84375 -13.25 C 2.414062 -14.488281 3.234375 -15.4375 4.296875 -16.09375 C 5.359375 -16.75 6.59375 -17.078125 8 -17.078125 C 9.945312 -17.078125 11.515625 -16.554688 12.703125 -15.515625 C 13.890625 -14.472656 14.570312 -13.015625 14.75 -11.140625 L 11.28125 -11.140625 C 11.195312 -12.222656 10.894531 -13.007812 10.375 -13.5 C 9.851562 -13.988281 9.0625 -14.234375 8 -14.234375 C 6.84375 -14.234375 5.972656 -13.816406 5.390625 -12.984375 C 4.816406 -12.160156 4.523438 -10.875 4.515625 -9.125 L 4.515625 -7.859375 C 4.515625 -6.035156 4.789062 -4.703125 5.34375 -3.859375 C 5.894531 -3.023438 6.765625 -2.609375 7.953125 -2.609375 C 9.023438 -2.609375 9.820312 -2.851562 10.34375 -3.34375 C 10.875 -3.832031 11.179688 -4.585938 11.265625 -5.609375 Z M 14.734375 -5.609375 "/></g></g></g><g fill="#000000" fill-opacity="1"><g transform="translate(45.630893, 22.193113)"><g><path d="M 14.734375 -5.609375 C 14.597656 -3.796875 13.925781 -2.367188 12.71875 -1.328125 C 11.519531 -0.285156 9.929688 0.234375 7.953125 0.234375 C 5.785156 0.234375 4.082031 -0.488281 2.84375 -1.9375 C 1.613281 -3.394531 1 -5.394531 1 -7.9375 L 1 -8.96875 C 1 -10.59375 1.28125 -12.019531 1.84375 -13.25 C 2.414062 -14.488281 3.234375 -15.4375 4.296875 -16.09375 C 5.359375 -16.75 6.59375 -17.078125 8 -17.078125 C 9.945312 -17.078125 11.515625 -16.554688 12.703125 -15.515625 C 13.890625 -14.472656 14.570312 -13.015625 14.75 -11.140625 L 11.28125 -11.140625 C 11.195312 -12.222656 10.894531 -13.007812 10.375 -13.5 C 9.851562 -13.988281 9.0625 -14.234375 8 -14.234375 C 6.84375 -14.234375 5.972656 -13.816406 5.390625 -12.984375 C 4.816406 -12.160156 4.523438 -10.875 4.515625 -9.125 L 4.515625 -7.859375 C 4.515625 -6.035156 4.789062 -4.703125 5.34375 -3.859375 C 5.894531 -3.023438 6.765625 -2.609375 7.953125 -2.609375 C 9.023438 -2.609375 9.820312 -2.851562 10.34375 -3.34375 C 10.875 -3.832031 11.179688 -4.585938 11.265625 -5.609375 Z M 14.734375 -5.609375 "/></g></g></g><g fill="#000000" fill-opacity="1"><g transform="translate(61.136359, 22.193113)"><g><path d="M 11.640625 -7.296875 L 4.984375 -7.296875 L 4.984375 -2.796875 L 12.796875 -2.796875 L 12.796875 0 L 1.5 0 L 1.5 -16.84375 L 12.78125 -16.84375 L 12.78125 -14.03125 L 4.984375 -14.03125 L 4.984375 -10.015625 L 11.640625 -10.015625 Z M 11.640625 -7.296875 "/></g></g></g><g fill="#000000" fill-opacity="1"><g transform="translate(74.466431, 22.193113)"><g><path d="M 4.984375 -5.9375 L 4.984375 0 L 1.5 0 L 1.5 -16.84375 L 8.078125 -16.84375 C 9.347656 -16.84375 10.460938 -16.613281 11.421875 -16.15625 C 12.378906 -15.695312 13.113281 -15.039062 13.625 -14.1875 C 14.144531 -13.332031 14.40625 -12.359375 14.40625 -11.265625 C 14.40625 -9.617188 13.835938 -8.316406 12.703125 -7.359375 C 11.578125 -6.410156 10.015625 -5.9375 8.015625 -5.9375 Z M 4.984375 -8.75 L 8.078125 -8.75 C 8.992188 -8.75 9.691406 -8.960938 10.171875 -9.390625 C 10.660156 -9.828125 10.90625 -10.445312 10.90625 -11.25 C 10.90625 -12.070312 10.660156 -12.738281 10.171875 -13.25 C 9.679688 -13.757812 9.007812 -14.019531 8.15625 -14.03125 L 4.984375 -14.03125 Z M 4.984375 -8.75 "/></g></g></g><g fill="#000000" fill-opacity="1"><g transform="translate(89.752044, 22.193113)"><g><path d="M 14.1875 -14.03125 L 9.03125 -14.03125 L 9.03125 0 L 5.5625 0 L 5.5625 -14.03125 L 0.46875 -14.03125 L 0.46875 -16.84375 L 14.1875 -16.84375 Z M 14.1875 -14.03125 "/></g></g></g><g fill="#000000" fill-opacity="1"><g transform="translate(104.41281, 22.193113)"><g><path d="M 5.203125 0 L 1.71875 0 L 1.71875 -16.84375 L 5.203125 -16.84375 Z M 5.203125 0 "/></g></g></g><g fill="#000000" fill-opacity="1"><g transform="translate(111.320842, 22.193113)"><g><path d="M 15.203125 0 L 11.734375 0 L 4.984375 -11.09375 L 4.984375 0 L 1.5 0 L 1.5 -16.84375 L 4.984375 -16.84375 L 11.75 -5.734375 L 11.75 -16.84375 L 15.203125 -16.84375 Z M 15.203125 0 "/></g></g></g><g fill="#000000" fill-opacity="1"><g transform="translate(128.05286, 22.193113)"><g><path d="M 14.84375 -2.125 C 14.21875 -1.375 13.332031 -0.789062 12.1875 -0.375 C 11.039062 0.03125 9.773438 0.234375 8.390625 0.234375 C 6.929688 0.234375 5.648438 -0.0820312 4.546875 -0.71875 C 3.453125 -1.351562 2.601562 -2.273438 2 -3.484375 C 1.40625 -4.703125 1.101562 -6.128906 1.09375 -7.765625 L 1.09375 -8.90625 C 1.09375 -10.59375 1.375 -12.050781 1.9375 -13.28125 C 2.507812 -14.507812 3.328125 -15.445312 4.390625 -16.09375 C 5.460938 -16.75 6.710938 -17.078125 8.140625 -17.078125 C 10.140625 -17.078125 11.703125 -16.597656 12.828125 -15.640625 C 13.960938 -14.691406 14.632812 -13.3125 14.84375 -11.5 L 11.453125 -11.5 C 11.304688 -12.457031 10.96875 -13.160156 10.4375 -13.609375 C 9.90625 -14.054688 9.175781 -14.28125 8.25 -14.28125 C 7.070312 -14.28125 6.171875 -13.835938 5.546875 -12.953125 C 4.929688 -12.066406 4.625 -10.75 4.625 -9 L 4.625 -7.921875 C 4.625 -6.148438 4.957031 -4.8125 5.625 -3.90625 C 6.289062 -3.007812 7.273438 -2.5625 8.578125 -2.5625 C 9.878906 -2.5625 10.804688 -2.835938 11.359375 -3.390625 L 11.359375 -6.296875 L 8.203125 -6.296875 L 8.203125 -8.859375 L 14.84375 -8.859375 Z M 14.84375 -2.125 "/></g></g></g><g fill="#000000" fill-opacity="1"><g transform="translate(144.194744, 22.193113)"><g/></g></g><g fill="#000000" fill-opacity="1"><g transform="translate(150.096078, 22.193113)"><g><path d="M 0.828125 -4.53125 C 0.828125 -5.3125 1.039062 -6.035156 1.46875 -6.703125 C 1.90625 -7.367188 2.707031 -8.101562 3.875 -8.90625 C 3.375 -9.582031 2.976562 -10.210938 2.6875 -10.796875 C 2.40625 -11.390625 2.265625 -12.007812 2.265625 -12.65625 C 2.265625 -13.96875 2.675781 -15.03125 3.5 -15.84375 C 4.332031 -16.664062 5.453125 -17.078125 6.859375 -17.078125 C 8.117188 -17.078125 9.148438 -16.703125 9.953125 -15.953125 C 10.765625 -15.210938 11.171875 -14.28125 11.171875 -13.15625 C 11.171875 -11.8125 10.488281 -10.628906 9.125 -9.609375 L 7.828125 -8.671875 L 10.734375 -5.296875 C 11.191406 -6.179688 11.421875 -7.164062 11.421875 -8.25 L 14.265625 -8.25 C 14.265625 -6.0625 13.757812 -4.285156 12.75 -2.921875 L 15.28125 0 L 11.484375 0 L 10.609375 -1 C 9.367188 -0.175781 7.941406 0.234375 6.328125 0.234375 C 4.660156 0.234375 3.328125 -0.203125 2.328125 -1.078125 C 1.328125 -1.953125 0.828125 -3.101562 0.828125 -4.53125 Z M 6.5 -2.453125 C 7.300781 -2.453125 8.054688 -2.675781 8.765625 -3.125 L 5.453125 -6.96875 L 5.203125 -6.796875 C 4.515625 -6.210938 4.171875 -5.519531 4.171875 -4.71875 C 4.171875 -4.050781 4.382812 -3.503906 4.8125 -3.078125 C 5.25 -2.660156 5.8125 -2.453125 6.5 -2.453125 Z M 5.265625 -12.703125 C 5.265625 -12.117188 5.601562 -11.390625 6.28125 -10.515625 L 7.171875 -11.09375 C 7.628906 -11.394531 7.941406 -11.679688 8.109375 -11.953125 C 8.285156 -12.234375 8.375 -12.566406 8.375 -12.953125 C 8.375 -13.335938 8.226562 -13.671875 7.9375 -13.953125 C 7.65625 -14.242188 7.296875 -14.390625 6.859375 -14.390625 C 6.378906 -14.390625 5.992188 -14.234375 5.703125 -13.921875 C 5.410156 -13.609375 5.265625 -13.203125 5.265625 -12.703125 Z M 5.265625 -12.703125 "/></g></g></g><g fill="#000000" fill-opacity="1"><g transform="translate(165.647829, 22.193113)"><g/></g></g><g fill="#000000" fill-opacity="1"><g transform="translate(171.549164, 22.193113)"><g><path d="M 14.265625 -16.84375 L 14.265625 -5.75 C 14.265625 -3.90625 13.6875 -2.445312 12.53125 -1.375 C 11.375 -0.300781 9.796875 0.234375 7.796875 0.234375 C 5.828125 0.234375 4.265625 -0.285156 3.109375 -1.328125 C 1.953125 -2.367188 1.363281 -3.800781 1.34375 -5.625 L 1.34375 -16.84375 L 4.8125 -16.84375 L 4.8125 -5.734375 C 4.8125 -4.628906 5.078125 -3.820312 5.609375 -3.3125 C 6.140625 -2.8125 6.867188 -2.5625 7.796875 -2.5625 C 9.753906 -2.5625 10.75 -3.585938 10.78125 -5.640625 L 10.78125 -16.84375 Z M 14.265625 -16.84375 "/></g></g></g><g fill="#000000" fill-opacity="1"><g transform="translate(187.1472, 22.193113)"><g><path d="M 15.203125 0 L 11.734375 0 L 4.984375 -11.09375 L 4.984375 0 L 1.5 0 L 1.5 -16.84375 L 4.984375 -16.84375 L 11.75 -5.734375 L 11.75 -16.84375 L 15.203125 -16.84375 Z M 15.203125 0 "/></g></g></g><g fill="#000000" fill-opacity="1"><g transform="translate(203.879207, 22.193113)"><g><path d="M 1.5 0 L 1.5 -16.84375 L 6.6875 -16.84375 C 8.164062 -16.84375 9.488281 -16.507812 10.65625 -15.84375 C 11.832031 -15.175781 12.75 -14.226562 13.40625 -13 C 14.0625 -11.769531 14.390625 -10.375 14.390625 -8.8125 L 14.390625 -8.03125 C 14.390625 -6.46875 14.066406 -5.078125 13.421875 -3.859375 C 12.773438 -2.640625 11.863281 -1.691406 10.6875 -1.015625 C 9.519531 -0.347656 8.195312 -0.0078125 6.71875 0 Z M 4.984375 -14.03125 L 4.984375 -2.796875 L 6.65625 -2.796875 C 8.007812 -2.796875 9.046875 -3.238281 9.765625 -4.125 C 10.484375 -5.007812 10.851562 -6.273438 10.875 -7.921875 L 10.875 -8.8125 C 10.875 -10.53125 10.515625 -11.828125 9.796875 -12.703125 C 9.085938 -13.585938 8.050781 -14.03125 6.6875 -14.03125 Z M 4.984375 -14.03125 "/></g></g></g><g fill="#000000" fill-opacity="1"><g transform="translate(219.280553, 22.193113)"><g><path d="M 11.640625 -7.296875 L 4.984375 -7.296875 L 4.984375 -2.796875 L 12.796875 -2.796875 L 12.796875 0 L 1.5 0 L 1.5 -16.84375 L 12.78125 -16.84375 L 12.78125 -14.03125 L 4.984375 -14.03125 L 4.984375 -10.015625 L 11.640625 -10.015625 Z M 11.640625 -7.296875 "/></g></g></g><g fill="#000000" fill-opacity="1"><g transform="translate(232.610625, 22.193113)"><g><path d="M 7.75 -6.171875 L 4.984375 -6.171875 L 4.984375 0 L 1.5 0 L 1.5 -16.84375 L 7.765625 -16.84375 C 9.753906 -16.84375 11.289062 -16.398438 12.375 -15.515625 C 13.457031 -14.628906 14 -13.378906 14 -11.765625 C 14 -10.609375 13.75 -9.644531 13.25 -8.875 C 12.75 -8.113281 11.992188 -7.503906 10.984375 -7.046875 L 14.625 -0.15625 L 14.625 0 L 10.90625 0 Z M 4.984375 -8.984375 L 7.78125 -8.984375 C 8.644531 -8.984375 9.316406 -9.203125 9.796875 -9.640625 C 10.273438 -10.085938 10.515625 -10.703125 10.515625 -11.484375 C 10.515625 -12.273438 10.289062 -12.894531 9.84375 -13.34375 C 9.394531 -13.800781 8.703125 -14.03125 7.765625 -14.03125 L 4.984375 -14.03125 Z M 4.984375 -8.984375 "/></g></g></g><g fill="#000000" fill-opacity="1"><g transform="translate(247.734219, 22.193113)"><g><path d="M 10.25 -4.421875 C 10.25 -5.078125 10.015625 -5.578125 9.546875 -5.921875 C 9.085938 -6.273438 8.253906 -6.644531 7.046875 -7.03125 C 5.847656 -7.425781 4.894531 -7.8125 4.1875 -8.1875 C 2.269531 -9.226562 1.3125 -10.625 1.3125 -12.375 C 1.3125 -13.28125 1.566406 -14.085938 2.078125 -14.796875 C 2.597656 -15.515625 3.335938 -16.070312 4.296875 -16.46875 C 5.253906 -16.875 6.332031 -17.078125 7.53125 -17.078125 C 8.738281 -17.078125 9.8125 -16.859375 10.75 -16.421875 C 11.6875 -15.992188 12.414062 -15.378906 12.9375 -14.578125 C 13.457031 -13.785156 13.71875 -12.882812 13.71875 -11.875 L 10.25 -11.875 C 10.25 -12.644531 10.003906 -13.242188 9.515625 -13.671875 C 9.035156 -14.097656 8.359375 -14.3125 7.484375 -14.3125 C 6.628906 -14.3125 5.96875 -14.128906 5.5 -13.765625 C 5.03125 -13.410156 4.796875 -12.941406 4.796875 -12.359375 C 4.796875 -11.816406 5.070312 -11.359375 5.625 -10.984375 C 6.175781 -10.609375 6.988281 -10.257812 8.0625 -9.9375 C 10.03125 -9.34375 11.460938 -8.601562 12.359375 -7.71875 C 13.265625 -6.84375 13.71875 -5.75 13.71875 -4.4375 C 13.71875 -2.976562 13.164062 -1.832031 12.0625 -1 C 10.96875 -0.175781 9.484375 0.234375 7.609375 0.234375 C 6.316406 0.234375 5.140625 0 4.078125 -0.46875 C 3.015625 -0.945312 2.203125 -1.597656 1.640625 -2.421875 C 1.078125 -3.253906 0.796875 -4.210938 0.796875 -5.296875 L 4.28125 -5.296875 C 4.28125 -3.441406 5.390625 -2.515625 7.609375 -2.515625 C 8.441406 -2.515625 9.085938 -2.679688 9.546875 -3.015625 C 10.015625 -3.347656 10.25 -3.816406 10.25 -4.421875 Z M 10.25 -4.421875 "/></g></g></g><g fill="#000000" fill-opacity="1"><g transform="translate(262.302436, 22.193113)"><g><path d="M 14.1875 -14.03125 L 9.03125 -14.03125 L 9.03125 0 L 5.5625 0 L 5.5625 -14.03125 L 0.46875 -14.03125 L 0.46875 -16.84375 L 14.1875 -16.84375 Z M 14.1875 -14.03125 "/></g></g></g><g fill="#000000" fill-opacity="1"><g transform="translate(275.574336, 22.193113)"><g><path d="M 11.015625 -3.46875 L 4.9375 -3.46875 L 3.765625 0 L 0.078125 0 L 6.359375 -16.84375 L 9.578125 -16.84375 L 15.875 0 L 12.1875 0 Z M 5.875 -6.28125 L 10.078125 -6.28125 L 7.96875 -12.59375 Z M 5.875 -6.28125 "/></g></g></g><g fill="#000000" fill-opacity="1"><g transform="translate(291.519509, 22.193113)"><g><path d="M 15.203125 0 L 11.734375 0 L 4.984375 -11.09375 L 4.984375 0 L 1.5 0 L 1.5 -16.84375 L 4.984375 -16.84375 L 11.75 -5.734375 L 11.75 -16.84375 L 15.203125 -16.84375 Z M 15.203125 0 "/></g></g></g><g fill="#000000" fill-opacity="1"><g transform="translate(308.251527, 22.193113)"><g><path d="M 1.5 0 L 1.5 -16.84375 L 6.6875 -16.84375 C 8.164062 -16.84375 9.488281 -16.507812 10.65625 -15.84375 C 11.832031 -15.175781 12.75 -14.226562 13.40625 -13 C 14.0625 -11.769531 14.390625 -10.375 14.390625 -8.8125 L 14.390625 -8.03125 C 14.390625 -6.46875 14.066406 -5.078125 13.421875 -3.859375 C 12.773438 -2.640625 11.863281 -1.691406 10.6875 -1.015625 C 9.519531 -0.347656 8.195312 -0.0078125 6.71875 0 Z M 4.984375 -14.03125 L 4.984375 -2.796875 L 6.65625 -2.796875 C 8.007812 -2.796875 9.046875 -3.238281 9.765625 -4.125 C 10.484375 -5.007812 10.851562 -6.273438 10.875 -7.921875 L 10.875 -8.8125 C 10.875 -10.53125 10.515625 -11.828125 9.796875 -12.703125 C 9.085938 -13.585938 8.050781 -14.03125 6.6875 -14.03125 Z M 4.984375 -14.03125 "/></g></g></g><g fill="#000000" fill-opacity="1"><g transform="translate(323.652852, 22.193113)"><g><path d="M 5.203125 0 L 1.71875 0 L 1.71875 -16.84375 L 5.203125 -16.84375 Z M 5.203125 0 "/></g></g></g><g fill="#000000" fill-opacity="1"><g transform="translate(330.560884, 22.193113)"><g><path d="M 15.203125 0 L 11.734375 0 L 4.984375 -11.09375 L 4.984375 0 L 1.5 0 L 1.5 -16.84375 L 4.984375 -16.84375 L 11.75 -5.734375 L 11.75 -16.84375 L 15.203125 -16.84375 Z M 15.203125 0 "/></g></g></g><g fill="#000000" fill-opacity="1"><g transform="translate(347.292902, 22.193113)"><g><path d="M 14.84375 -2.125 C 14.21875 -1.375 13.332031 -0.789062 12.1875 -0.375 C 11.039062 0.03125 9.773438 0.234375 8.390625 0.234375 C 6.929688 0.234375 5.648438 -0.0820312 4.546875 -0.71875 C 3.453125 -1.351562 2.601562 -2.273438 2 -3.484375 C 1.40625 -4.703125 1.101562 -6.128906 1.09375 -7.765625 L 1.09375 -8.90625 C 1.09375 -10.59375 1.375 -12.050781 1.9375 -13.28125 C 2.507812 -14.507812 3.328125 -15.445312 4.390625 -16.09375 C 5.460938 -16.75 6.710938 -17.078125 8.140625 -17.078125 C 10.140625 -17.078125 11.703125 -16.597656 12.828125 -15.640625 C 13.960938 -14.691406 14.632812 -13.3125 14.84375 -11.5 L 11.453125 -11.5 C 11.304688 -12.457031 10.96875 -13.160156 10.4375 -13.609375 C 9.90625 -14.054688 9.175781 -14.28125 8.25 -14.28125 C 7.070312 -14.28125 6.171875 -13.835938 5.546875 -12.953125 C 4.929688 -12.066406 4.625 -10.75 4.625 -9 L 4.625 -7.921875 C 4.625 -6.148438 4.957031 -4.8125 5.625 -3.90625 C 6.289062 -3.007812 7.273438 -2.5625 8.578125 -2.5625 C 9.878906 -2.5625 10.804688 -2.835938 11.359375 -3.390625 L 11.359375 -6.296875 L 8.203125 -6.296875 L 8.203125 -8.859375 L 14.84375 -8.859375 Z M 14.84375 -2.125 "/></g></g></g><g fill="#000000" fill-opacity="1"><g transform="translate(363.434786, 22.193113)"><g/></g></g><g fill="#000000" fill-opacity="1"><g transform="translate(369.336141, 22.193113)"><g><path d="M 11.015625 -3.46875 L 4.9375 -3.46875 L 3.765625 0 L 0.078125 0 L 6.359375 -16.84375 L 9.578125 -16.84375 L 15.875 0 L 12.1875 0 Z M 5.875 -6.28125 L 10.078125 -6.28125 L 7.96875 -12.59375 Z M 5.875 -6.28125 "/></g></g></g><g fill="#000000" fill-opacity="1"><g transform="translate(385.281272, 22.193113)"><g><path d="M 15.203125 0 L 11.734375 0 L 4.984375 -11.09375 L 4.984375 0 L 1.5 0 L 1.5 -16.84375 L 4.984375 -16.84375 L 11.75 -5.734375 L 11.75 -16.84375 L 15.203125 -16.84375 Z M 15.203125 0 "/></g></g></g><g fill="#000000" fill-opacity="1"><g transform="translate(402.013333, 22.193113)"><g><path d="M 1.5 0 L 1.5 -16.84375 L 6.6875 -16.84375 C 8.164062 -16.84375 9.488281 -16.507812 10.65625 -15.84375 C 11.832031 -15.175781 12.75 -14.226562 13.40625 -13 C 14.0625 -11.769531 14.390625 -10.375 14.390625 -8.8125 L 14.390625 -8.03125 C 14.390625 -6.46875 14.066406 -5.078125 13.421875 -3.859375 C 12.773438 -2.640625 11.863281 -1.691406 10.6875 -1.015625 C 9.519531 -0.347656 8.195312 -0.0078125 6.71875 0 Z M 4.984375 -14.03125 L 4.984375 -2.796875 L 6.65625 -2.796875 C 8.007812 -2.796875 9.046875 -3.238281 9.765625 -4.125 C 10.484375 -5.007812 10.851562 -6.273438 10.875 -7.921875 L 10.875 -8.8125 C 10.875 -10.53125 10.515625 -11.828125 9.796875 -12.703125 C 9.085938 -13.585938 8.050781 -14.03125 6.6875 -14.03125 Z M 4.984375 -14.03125 "/></g></g></g><g fill="#000000" fill-opacity="1"><g transform="translate(0.96643, 55.344282)"><g><path d="M 14.1875 -14.03125 L 9.03125 -14.03125 L 9.03125 0 L 5.5625 0 L 5.5625 -14.03125 L 0.46875 -14.03125 L 0.46875 -16.84375 L 14.1875 -16.84375 Z M 14.1875 -14.03125 "/></g></g></g><g fill="#000000" fill-opacity="1"><g transform="translate(15.627196, 55.344282)"><g><path d="M 7.75 -6.171875 L 4.984375 -6.171875 L 4.984375 0 L 1.5 0 L 1.5 -16.84375 L 7.765625 -16.84375 C 9.753906 -16.84375 11.289062 -16.398438 12.375 -15.515625 C 13.457031 -14.628906 14 -13.378906 14 -11.765625 C 14 -10.609375 13.75 -9.644531 13.25 -8.875 C 12.75 -8.113281 11.992188 -7.503906 10.984375 -7.046875 L 14.625 -0.15625 L 14.625 0 L 10.90625 0 Z M 4.984375 -8.984375 L 7.78125 -8.984375 C 8.644531 -8.984375 9.316406 -9.203125 9.796875 -9.640625 C 10.273438 -10.085938 10.515625 -10.703125 10.515625 -11.484375 C 10.515625 -12.273438 10.289062 -12.894531 9.84375 -13.34375 C 9.394531 -13.800781 8.703125 -14.03125 7.765625 -14.03125 L 4.984375 -14.03125 Z M 4.984375 -8.984375 "/></g></g></g><g fill="#000000" fill-opacity="1"><g transform="translate(30.750811, 55.344282)"><g><path d="M 11.640625 -7.296875 L 4.984375 -7.296875 L 4.984375 -2.796875 L 12.796875 -2.796875 L 12.796875 0 L 1.5 0 L 1.5 -16.84375 L 12.78125 -16.84375 L 12.78125 -14.03125 L 4.984375 -14.03125 L 4.984375 -10.015625 L 11.640625 -10.015625 Z M 11.640625 -7.296875 "/></g></g></g><g fill="#000000" fill-opacity="1"><g transform="translate(44.080884, 55.344282)"><g><path d="M 11.015625 -3.46875 L 4.9375 -3.46875 L 3.765625 0 L 0.078125 0 L 6.359375 -16.84375 L 9.578125 -16.84375 L 15.875 0 L 12.1875 0 Z M 5.875 -6.28125 L 10.078125 -6.28125 L 7.96875 -12.59375 Z M 5.875 -6.28125 "/></g></g></g><g fill="#000000" fill-opacity="1"><g transform="translate(58.637202, 55.344282)"><g><path d="M 14.1875 -14.03125 L 9.03125 -14.03125 L 9.03125 0 L 5.5625 0 L 5.5625 -14.03125 L 0.46875 -14.03125 L 0.46875 -16.84375 L 14.1875 -16.84375 Z M 14.1875 -14.03125 "/></g></g></g><g fill="#000000" fill-opacity="1"><g transform="translate(73.297968, 55.344282)"><g><path d="M 5.203125 0 L 1.71875 0 L 1.71875 -16.84375 L 5.203125 -16.84375 Z M 5.203125 0 "/></g></g></g><g fill="#000000" fill-opacity="1"><g transform="translate(80.206, 55.344282)"><g><path d="M 15.203125 0 L 11.734375 0 L 4.984375 -11.09375 L 4.984375 0 L 1.5 0 L 1.5 -16.84375 L 4.984375 -16.84375 L 11.75 -5.734375 L 11.75 -16.84375 L 15.203125 -16.84375 Z M 15.203125 0 "/></g></g></g><g fill="#000000" fill-opacity="1"><g transform="translate(96.938018, 55.344282)"><g><path d="M 14.84375 -2.125 C 14.21875 -1.375 13.332031 -0.789062 12.1875 -0.375 C 11.039062 0.03125 9.773438 0.234375 8.390625 0.234375 C 6.929688 0.234375 5.648438 -0.0820312 4.546875 -0.71875 C 3.453125 -1.351562 2.601562 -2.273438 2 -3.484375 C 1.40625 -4.703125 1.101562 -6.128906 1.09375 -7.765625 L 1.09375 -8.90625 C 1.09375 -10.59375 1.375 -12.050781 1.9375 -13.28125 C 2.507812 -14.507812 3.328125 -15.445312 4.390625 -16.09375 C 5.460938 -16.75 6.710938 -17.078125 8.140625 -17.078125 C 10.140625 -17.078125 11.703125 -16.597656 12.828125 -15.640625 C 13.960938 -14.691406 14.632812 -13.3125 14.84375 -11.5 L 11.453125 -11.5 C 11.304688 -12.457031 10.96875 -13.160156 10.4375 -13.609375 C 9.90625 -14.054688 9.175781 -14.28125 8.25 -14.28125 C 7.070312 -14.28125 6.171875 -13.835938 5.546875 -12.953125 C 4.929688 -12.066406 4.625 -10.75 4.625 -9 L 4.625 -7.921875 C 4.625 -6.148438 4.957031 -4.8125 5.625 -3.90625 C 6.289062 -3.007812 7.273438 -2.5625 8.578125 -2.5625 C 9.878906 -2.5625 10.804688 -2.835938 11.359375 -3.390625 L 11.359375 -6.296875 L 8.203125 -6.296875 L 8.203125 -8.859375 L 14.84375 -8.859375 Z M 14.84375 -2.125 "/></g></g></g><g fill="#000000" fill-opacity="1"><g transform="translate(113.079903, 55.344282)"><g/></g></g><g fill="#000000" fill-opacity="1"><g transform="translate(118.286815, 55.344282)"><g><path d="M 14.1875 -14.03125 L 9.03125 -14.03125 L 9.03125 0 L 5.5625 0 L 5.5625 -14.03125 L 0.46875 -14.03125 L 0.46875 -16.84375 L 14.1875 -16.84375 Z M 14.1875 -14.03125 "/></g></g></g><g fill="#000000" fill-opacity="1"><g transform="translate(132.94758, 55.344282)"><g><path d="M 15.21875 0 L 11.75 0 L 11.75 -7.21875 L 4.984375 -7.21875 L 4.984375 0 L 1.5 0 L 1.5 -16.84375 L 4.984375 -16.84375 L 4.984375 -10.015625 L 11.75 -10.015625 L 11.75 -16.84375 L 15.21875 -16.84375 Z M 15.21875 0 "/></g></g></g><g fill="#000000" fill-opacity="1"><g transform="translate(149.69117, 55.344282)"><g><path d="M 11.640625 -7.296875 L 4.984375 -7.296875 L 4.984375 -2.796875 L 12.796875 -2.796875 L 12.796875 0 L 1.5 0 L 1.5 -16.84375 L 12.78125 -16.84375 L 12.78125 -14.03125 L 4.984375 -14.03125 L 4.984375 -10.015625 L 11.640625 -10.015625 Z M 11.640625 -7.296875 "/></g></g></g><g fill="#000000" fill-opacity="1"><g transform="translate(163.021242, 55.344282)"><g/></g></g><g fill="#000000" fill-opacity="1"><g transform="translate(168.922576, 55.344282)"><g><path d="M 5.203125 0 L 1.71875 0 L 1.71875 -16.84375 L 5.203125 -16.84375 Z M 5.203125 0 "/></g></g></g><g fill="#000000" fill-opacity="1"><g transform="translate(175.830608, 55.344282)"><g><path d="M 15.203125 0 L 11.734375 0 L 4.984375 -11.09375 L 4.984375 0 L 1.5 0 L 1.5 -16.84375 L 4.984375 -16.84375 L 11.75 -5.734375 L 11.75 -16.84375 L 15.203125 -16.84375 Z M 15.203125 0 "/></g></g></g><g fill="#000000" fill-opacity="1"><g transform="translate(192.562615, 55.344282)"><g><path d="M 15.203125 0 L 11.734375 0 L 4.984375 -11.09375 L 4.984375 0 L 1.5 0 L 1.5 -16.84375 L 4.984375 -16.84375 L 11.75 -5.734375 L 11.75 -16.84375 L 15.203125 -16.84375 Z M 15.203125 0 "/></g></g></g><g fill="#000000" fill-opacity="1"><g transform="translate(209.294633, 55.344282)"><g><path d="M 15.34375 -8.046875 C 15.34375 -6.390625 15.050781 -4.9375 14.46875 -3.6875 C 13.882812 -2.4375 13.046875 -1.46875 11.953125 -0.78125 C 10.859375 -0.101562 9.601562 0.234375 8.1875 0.234375 C 6.789062 0.234375 5.546875 -0.0976562 4.453125 -0.765625 C 3.359375 -1.441406 2.507812 -2.398438 1.90625 -3.640625 C 1.300781 -4.890625 1 -6.328125 1 -7.953125 L 1 -8.78125 C 1 -10.4375 1.296875 -11.894531 1.890625 -13.15625 C 2.492188 -14.425781 3.335938 -15.394531 4.421875 -16.0625 C 5.515625 -16.738281 6.765625 -17.078125 8.171875 -17.078125 C 9.578125 -17.078125 10.820312 -16.738281 11.90625 -16.0625 C 13 -15.394531 13.84375 -14.425781 14.4375 -13.15625 C 15.039062 -11.894531 15.34375 -10.441406 15.34375 -8.796875 Z M 11.828125 -8.8125 C 11.828125 -10.570312 11.507812 -11.910156 10.875 -12.828125 C 10.25 -13.753906 9.347656 -14.21875 8.171875 -14.21875 C 7.003906 -14.21875 6.101562 -13.765625 5.46875 -12.859375 C 4.84375 -11.953125 4.523438 -10.617188 4.515625 -8.859375 L 4.515625 -8.046875 C 4.515625 -6.328125 4.828125 -4.988281 5.453125 -4.03125 C 6.085938 -3.082031 7 -2.609375 8.1875 -2.609375 C 9.351562 -2.609375 10.25 -3.066406 10.875 -3.984375 C 11.5 -4.898438 11.816406 -6.234375 11.828125 -7.984375 Z M 11.828125 -8.8125 "/></g></g></g><g fill="#000000" fill-opacity="1"><g transform="translate(225.656371, 55.344282)"><g><path d="M 14.734375 -5.609375 C 14.597656 -3.796875 13.925781 -2.367188 12.71875 -1.328125 C 11.519531 -0.285156 9.929688 0.234375 7.953125 0.234375 C 5.785156 0.234375 4.082031 -0.488281 2.84375 -1.9375 C 1.613281 -3.394531 1 -5.394531 1 -7.9375 L 1 -8.96875 C 1 -10.59375 1.28125 -12.019531 1.84375 -13.25 C 2.414062 -14.488281 3.234375 -15.4375 4.296875 -16.09375 C 5.359375 -16.75 6.59375 -17.078125 8 -17.078125 C 9.945312 -17.078125 11.515625 -16.554688 12.703125 -15.515625 C 13.890625 -14.472656 14.570312 -13.015625 14.75 -11.140625 L 11.28125 -11.140625 C 11.195312 -12.222656 10.894531 -13.007812 10.375 -13.5 C 9.851562 -13.988281 9.0625 -14.234375 8 -14.234375 C 6.84375 -14.234375 5.972656 -13.816406 5.390625 -12.984375 C 4.816406 -12.160156 4.523438 -10.875 4.515625 -9.125 L 4.515625 -7.859375 C 4.515625 -6.035156 4.789062 -4.703125 5.34375 -3.859375 C 5.894531 -3.023438 6.765625 -2.609375 7.953125 -2.609375 C 9.023438 -2.609375 9.820312 -2.851562 10.34375 -3.34375 C 10.875 -3.832031 11.179688 -4.585938 11.265625 -5.609375 Z M 14.734375 -5.609375 "/></g></g></g><g fill="#000000" fill-opacity="1"><g transform="translate(241.161838, 55.344282)"><g><path d="M 11.640625 -7.296875 L 4.984375 -7.296875 L 4.984375 -2.796875 L 12.796875 -2.796875 L 12.796875 0 L 1.5 0 L 1.5 -16.84375 L 12.78125 -16.84375 L 12.78125 -14.03125 L 4.984375 -14.03125 L 4.984375 -10.015625 L 11.640625 -10.015625 Z M 11.640625 -7.296875 "/></g></g></g><g fill="#000000" fill-opacity="1"><g transform="translate(254.49191, 55.344282)"><g><path d="M 15.203125 0 L 11.734375 0 L 4.984375 -11.09375 L 4.984375 0 L 1.5 0 L 1.5 -16.84375 L 4.984375 -16.84375 L 11.75 -5.734375 L 11.75 -16.84375 L 15.203125 -16.84375 Z M 15.203125 0 "/></g></g></g><g fill="#000000" fill-opacity="1"><g transform="translate(270.888299, 55.344282)"><g><path d="M 14.1875 -14.03125 L 9.03125 -14.03125 L 9.03125 0 L 5.5625 0 L 5.5625 -14.03125 L 0.46875 -14.03125 L 0.46875 -16.84375 L 14.1875 -16.84375 Z M 14.1875 -14.03125 "/></g></g></g><g fill="#000000" fill-opacity="1"><g transform="translate(284.854642, 55.344282)"><g/></g></g><g fill="#000000" fill-opacity="1"><g transform="translate(290.755976, 55.344282)"><g><path d="M 10.25 -4.421875 C 10.25 -5.078125 10.015625 -5.578125 9.546875 -5.921875 C 9.085938 -6.273438 8.253906 -6.644531 7.046875 -7.03125 C 5.847656 -7.425781 4.894531 -7.8125 4.1875 -8.1875 C 2.269531 -9.226562 1.3125 -10.625 1.3125 -12.375 C 1.3125 -13.28125 1.566406 -14.085938 2.078125 -14.796875 C 2.597656 -15.515625 3.335938 -16.070312 4.296875 -16.46875 C 5.253906 -16.875 6.332031 -17.078125 7.53125 -17.078125 C 8.738281 -17.078125 9.8125 -16.859375 10.75 -16.421875 C 11.6875 -15.992188 12.414062 -15.378906 12.9375 -14.578125 C 13.457031 -13.785156 13.71875 -12.882812 13.71875 -11.875 L 10.25 -11.875 C 10.25 -12.644531 10.003906 -13.242188 9.515625 -13.671875 C 9.035156 -14.097656 8.359375 -14.3125 7.484375 -14.3125 C 6.628906 -14.3125 5.96875 -14.128906 5.5 -13.765625 C 5.03125 -13.410156 4.796875 -12.941406 4.796875 -12.359375 C 4.796875 -11.816406 5.070312 -11.359375 5.625 -10.984375 C 6.175781 -10.609375 6.988281 -10.257812 8.0625 -9.9375 C 10.03125 -9.34375 11.460938 -8.601562 12.359375 -7.71875 C 13.265625 -6.84375 13.71875 -5.75 13.71875 -4.4375 C 13.71875 -2.976562 13.164062 -1.832031 12.0625 -1 C 10.96875 -0.175781 9.484375 0.234375 7.609375 0.234375 C 6.316406 0.234375 5.140625 0 4.078125 -0.46875 C 3.015625 -0.945312 2.203125 -1.597656 1.640625 -2.421875 C 1.078125 -3.253906 0.796875 -4.210938 0.796875 -5.296875 L 4.28125 -5.296875 C 4.28125 -3.441406 5.390625 -2.515625 7.609375 -2.515625 C 8.441406 -2.515625 9.085938 -2.679688 9.546875 -3.015625 C 10.015625 -3.347656 10.25 -3.816406 10.25 -4.421875 Z M 10.25 -4.421875 "/></g></g></g><g fill="#000000" fill-opacity="1"><g transform="translate(305.324171, 55.344282)"><g><path d="M 15.34375 -8.046875 C 15.34375 -6.390625 15.050781 -4.9375 14.46875 -3.6875 C 13.882812 -2.4375 13.046875 -1.46875 11.953125 -0.78125 C 10.859375 -0.101562 9.601562 0.234375 8.1875 0.234375 C 6.789062 0.234375 5.546875 -0.0976562 4.453125 -0.765625 C 3.359375 -1.441406 2.507812 -2.398438 1.90625 -3.640625 C 1.300781 -4.890625 1 -6.328125 1 -7.953125 L 1 -8.78125 C 1 -10.4375 1.296875 -11.894531 1.890625 -13.15625 C 2.492188 -14.425781 3.335938 -15.394531 4.421875 -16.0625 C 5.515625 -16.738281 6.765625 -17.078125 8.171875 -17.078125 C 9.578125 -17.078125 10.820312 -16.738281 11.90625 -16.0625 C 13 -15.394531 13.84375 -14.425781 14.4375 -13.15625 C 15.039062 -11.894531 15.34375 -10.441406 15.34375 -8.796875 Z M 11.828125 -8.8125 C 11.828125 -10.570312 11.507812 -11.910156 10.875 -12.828125 C 10.25 -13.753906 9.347656 -14.21875 8.171875 -14.21875 C 7.003906 -14.21875 6.101562 -13.765625 5.46875 -12.859375 C 4.84375 -11.953125 4.523438 -10.617188 4.515625 -8.859375 L 4.515625 -8.046875 C 4.515625 -6.328125 4.828125 -4.988281 5.453125 -4.03125 C 6.085938 -3.082031 7 -2.609375 8.1875 -2.609375 C 9.351562 -2.609375 10.25 -3.066406 10.875 -3.984375 C 11.5 -4.898438 11.816406 -6.234375 11.828125 -7.984375 Z M 11.828125 -8.8125 "/></g></g></g><g fill="#000000" fill-opacity="1"><g transform="translate(321.68591, 55.344282)"><g><path d="M 14.265625 -16.84375 L 14.265625 -5.75 C 14.265625 -3.90625 13.6875 -2.445312 12.53125 -1.375 C 11.375 -0.300781 9.796875 0.234375 7.796875 0.234375 C 5.828125 0.234375 4.265625 -0.285156 3.109375 -1.328125 C 1.953125 -2.367188 1.363281 -3.800781 1.34375 -5.625 L 1.34375 -16.84375 L 4.8125 -16.84375 L 4.8125 -5.734375 C 4.8125 -4.628906 5.078125 -3.820312 5.609375 -3.3125 C 6.140625 -2.8125 6.867188 -2.5625 7.796875 -2.5625 C 9.753906 -2.5625 10.75 -3.585938 10.78125 -5.640625 L 10.78125 -16.84375 Z M 14.265625 -16.84375 "/></g></g></g><g fill="#000000" fill-opacity="1"><g transform="translate(337.283946, 55.344282)"><g><path d="M 4.984375 -2.796875 L 12.34375 -2.796875 L 12.34375 0 L 1.5 0 L 1.5 -16.84375 L 4.984375 -16.84375 Z M 4.984375 -2.796875 "/></g></g></g><g fill="#000000" fill-opacity="1"><g transform="translate(346.78322, 55.344282)"><g><path d="M 3.1875 -16.078125 L 2.84375 -11.40625 L 0.734375 -11.40625 L 0.734375 -17.78125 L 3.1875 -17.78125 Z M 3.1875 -16.078125 "/></g></g></g><g fill="#000000" fill-opacity="1"><g transform="translate(350.613281, 55.344282)"><g><path d="M 10.25 -4.421875 C 10.25 -5.078125 10.015625 -5.578125 9.546875 -5.921875 C 9.085938 -6.273438 8.253906 -6.644531 7.046875 -7.03125 C 5.847656 -7.425781 4.894531 -7.8125 4.1875 -8.1875 C 2.269531 -9.226562 1.3125 -10.625 1.3125 -12.375 C 1.3125 -13.28125 1.566406 -14.085938 2.078125 -14.796875 C 2.597656 -15.515625 3.335938 -16.070312 4.296875 -16.46875 C 5.253906 -16.875 6.332031 -17.078125 7.53125 -17.078125 C 8.738281 -17.078125 9.8125 -16.859375 10.75 -16.421875 C 11.6875 -15.992188 12.414062 -15.378906 12.9375 -14.578125 C 13.457031 -13.785156 13.71875 -12.882812 13.71875 -11.875 L 10.25 -11.875 C 10.25 -12.644531 10.003906 -13.242188 9.515625 -13.671875 C 9.035156 -14.097656 8.359375 -14.3125 7.484375 -14.3125 C 6.628906 -14.3125 5.96875 -14.128906 5.5 -13.765625 C 5.03125 -13.410156 4.796875 -12.941406 4.796875 -12.359375 C 4.796875 -11.816406 5.070312 -11.359375 5.625 -10.984375 C 6.175781 -10.609375 6.988281 -10.257812 8.0625 -9.9375 C 10.03125 -9.34375 11.460938 -8.601562 12.359375 -7.71875 C 13.265625 -6.84375 13.71875 -5.75 13.71875 -4.4375 C 13.71875 -2.976562 13.164062 -1.832031 12.0625 -1 C 10.96875 -0.175781 9.484375 0.234375 7.609375 0.234375 C 6.316406 0.234375 5.140625 0 4.078125 -0.46875 C 3.015625 -0.945312 2.203125 -1.597656 1.640625 -2.421875 C 1.078125 -3.253906 0.796875 -4.210938 0.796875 -5.296875 L 4.28125 -5.296875 C 4.28125 -3.441406 5.390625 -2.515625 7.609375 -2.515625 C 8.441406 -2.515625 9.085938 -2.679688 9.546875 -3.015625 C 10.015625 -3.347656 10.25 -3.816406 10.25 -4.421875 Z M 10.25 -4.421875 "/></g></g></g><g fill="#000000" fill-opacity="1"><g transform="translate(365.181497, 55.344282)"><g/></g></g><g fill="#000000" fill-opacity="1"><g transform="translate(371.082831, 55.344282)"><g><path d="M 6.046875 -16.84375 L 10.375 -4.625 L 14.671875 -16.84375 L 19.234375 -16.84375 L 19.234375 0 L 15.75 0 L 15.75 -4.609375 L 16.09375 -12.5625 L 11.546875 0 L 9.171875 0 L 4.625 -12.546875 L 4.984375 -4.609375 L 4.984375 0 L 1.5 0 L 1.5 -16.84375 Z M 6.046875 -16.84375 "/></g></g></g><g fill="#000000" fill-opacity="1"><g transform="translate(391.841642, 55.344282)"><g><path d="M 5.203125 0 L 1.71875 0 L 1.71875 -16.84375 L 5.203125 -16.84375 Z M 5.203125 0 "/></g></g></g><g fill="#000000" fill-opacity="1"><g transform="translate(398.749653, 55.344282)"><g><path d="M 15.203125 0 L 11.734375 0 L 4.984375 -11.09375 L 4.984375 0 L 1.5 0 L 1.5 -16.84375 L 4.984375 -16.84375 L 11.75 -5.734375 L 11.75 -16.84375 L 15.203125 -16.84375 Z M 15.203125 0 "/></g></g></g><g fill="#000000" fill-opacity="1"><g transform="translate(415.481671, 55.344282)"><g><path d="M 1.5 0 L 1.5 -16.84375 L 6.6875 -16.84375 C 8.164062 -16.84375 9.488281 -16.507812 10.65625 -15.84375 C 11.832031 -15.175781 12.75 -14.226562 13.40625 -13 C 14.0625 -11.769531 14.390625 -10.375 14.390625 -8.8125 L 14.390625 -8.03125 C 14.390625 -6.46875 14.066406 -5.078125 13.421875 -3.859375 C 12.773438 -2.640625 11.863281 -1.691406 10.6875 -1.015625 C 9.519531 -0.347656 8.195312 -0.0078125 6.71875 0 Z M 4.984375 -14.03125 L 4.984375 -2.796875 L 6.65625 -2.796875 C 8.007812 -2.796875 9.046875 -3.238281 9.765625 -4.125 C 10.484375 -5.007812 10.851562 -6.273438 10.875 -7.921875 L 10.875 -8.8125 C 10.875 -10.53125 10.515625 -11.828125 9.796875 -12.703125 C 9.085938 -13.585938 8.050781 -14.03125 6.6875 -14.03125 Z M 4.984375 -14.03125 "/></g></g></g></g></g></svg>